<svg width="24" height="24" viewBox="0 0 24 24" fill="none" xmlns="http://www.w3.org/2000/svg">
<path d="M18.5999 17.22C20.8399 14.42 21.3999 10.36 19.9999 7.06C18.4399 3.38 14.5599 0.84 10.5599 1.01C6.8699 1.16 3.3299 3.48 1.8199 6.85C0.149905 10.57 1.0899 15.3 4.0499 18.1C6.6399 20.56 10.6299 21.38 14.0199 20.29C14.6999 20.07 14.8899 19.18 14.3899 18.67C14.1199 18.39 13.7099 18.31 13.3399 18.43C10.5299 19.33 7.2099 18.54 5.1599 16.4C2.9599 14.11 2.3499 10.43 3.6999 7.55C5.0499 4.67 8.2699 2.79 11.4399 3.02C14.6099 3.25 17.5199 5.58 18.4499 8.62C19.2799 11.35 18.4499 14.48 16.4699 16.51C16.0899 16.9 16.0899 17.52 16.4699 17.91L21.4499 22.89C21.8399 23.28 22.4599 23.28 22.8499 22.89C23.2299 22.51 23.2399 21.88 22.8499 21.5L18.5999 17.22Z" fill="#BBBEBF"/>
</svg>
